<svg xmlns="http://www.w3.org/2000/svg" viewBox="0 0 1500 400"><defs><style>.cls-1{font-size:48px;fill:#fff;font-family:MyriadPro-Regular, Myriad Pro;}.cls-2{letter-spacing:-0.03em;}.cls-3{letter-spacing:0em;}.cls-4{letter-spacing:0em;}.cls-5{letter-spacing:0.02em;}.cls-6{letter-spacing:-0.01em;}.cls-7{letter-spacing:-0.01em;}.cls-8{letter-spacing:0em;}.cls-9{letter-spacing:-0.01em;}.cls-10{fill:#040404;}.cls-11{fill:#090909;}.cls-12{fill:#0272ba;}.cls-13{fill:#f58749;}.cls-14{fill:#0171ba;}.cls-15{fill:#0071ba;}.cls-16{fill:#0172ba;}.cls-17{fill:#010101;}.cls-18{fill:#050505;}</style></defs><title>rkLogoLightBG</title><g id="robots4autism"><text class="cls-1" transform="translate(447.65 -44.08)"><tspan class="cls-2">F</tspan><tspan x="21.89" y="0">or lig</tspan><tspan class="cls-3" x="123.5" y="0">h</tspan><tspan class="cls-4" x="149.95" y="0">t</tspan><tspan class="cls-5" x="165.6" y="0">-</tspan><tspan class="cls-6" x="181.2" y="0">c</tspan><tspan x="202.41" y="0">olo</tspan><tspan class="cls-7" x="266.44" y="0">r</tspan><tspan class="cls-8" x="281.66" y="0">ed back</tspan><tspan class="cls-9" x="437.42" y="0">g</tspan><tspan class="cls-7" x="463.96" y="0">r</tspan><tspan x="479.18" y="0">ounds</tspan></text><path class="cls-10" d="M1156.09,343c-8-1.56-14-5.74-17.5-13.33a24.93,24.93,0,0,1-.45-20.93c4.06-9.46,11.39-14.34,21.67-14.71a23.47,23.47,0,0,1,11.37,2.07c9.23,4.52,13.79,12,14,22.23a24.51,24.51,0,0,1-3.73,13.88c-3.78,6-9.29,9.41-16.16,10.78a4.61,4.61,0,0,0-2.27.37h-4.68A5,5,0,0,0,1156.09,343Zm22.26-24.2c.14-8.24-5.25-17.22-14.79-18.55-5.65-.79-10.8.38-14.87,4.54-5.13,5.22-6.7,11.58-5.1,18.67a17.42,17.42,0,0,0,28.31,9.8C1176.4,329.58,1178.15,324.51,1178.35,318.81Z"/><path class="cls-10" d="M629.94,343a16.85,16.85,0,0,1-10.71-6c1.54-1.71,3.38-3,5.12-4.63a13.1,13.1,0,0,0,4.84,3.84,11.17,11.17,0,0,0,11.61-1c3.3-2.29,4.6-8.39-.65-11.08a48.42,48.42,0,0,0-6.72-2.55,35.44,35.44,0,0,1-6.65-2.72,12.83,12.83,0,0,1-5.54-15.36c1.85-5.12,5.66-8,10.81-9.07a23.58,23.58,0,0,1,11.75.58,12.5,12.5,0,0,1,6.25,4.34c-1.56,1.76-3.39,3.16-5.09,4.84a10.09,10.09,0,0,0-6-3.91,11.85,11.85,0,0,0-8.13,1.13c-3.92,2.09-5.09,8-.27,11.49a9.22,9.22,0,0,0,2.61,1.27q4.34,1.42,8.67,2.9c7.25,2.49,9.42,7.4,8.52,14.21-.71,5.39-3.91,8.91-9,10.78-1.36.5-2.76.89-4.14,1.33h-5.07A5,5,0,0,0,629.94,343Z"/><path class="cls-10" d="M1355.72,343.37c-.46-.66-1.24-.57-1.89-.76a17.68,17.68,0,0,1-8.12-4.78c-.61-.65-.72-1.08.08-1.7,1.48-1.15,2.88-2.41,4.38-3.68.69.29,1,1,1.49,1.46,3.32,3.28,9.51,5.13,14.61,1.47a7.4,7.4,0,0,0,3-3.92,6,6,0,0,0-2.83-7,32.24,32.24,0,0,0-7-2.82,36.88,36.88,0,0,1-7.85-3.34,9.69,9.69,0,0,1-2.07-1.75,13.29,13.29,0,0,1,4.35-20.77c3.23-1.68,6.71-1.88,10.24-1.7a17.76,17.76,0,0,1,7.15,1.65,14.24,14.24,0,0,1,4.59,3.71l-5,4.75a10.19,10.19,0,0,0-5.94-3.87,12.55,12.55,0,0,0-8,.94,6.64,6.64,0,0,0-1.39,10.95,9.63,9.63,0,0,0,3.53,2c3,.94,5.9,2,8.85,3,6.67,2.26,9.48,7.57,8.23,14.34a13,13,0,0,1-9.52,10.75,7.64,7.64,0,0,1-2.8.73c-1.91,0-3.83,0-5.74,0-.55,0-1.17-.17-1.59.39Z"/><path class="cls-10" d="M757.48,343c-6.88-1.2-12-5-15.72-10.78-6.72-10.5-4.59-25,4.77-32.9,5.11-4.3,11.12-5.65,17.63-5.24a20.26,20.26,0,0,1,10.13,3.05,22.41,22.41,0,0,1,2,1.49c2.87,2.4,2.87,2.41,0,4.64l-2.65,2a20.26,20.26,0,0,0-3.65-3,15.39,15.39,0,0,0-16.44,0c-5,2.92-7.72,7.59-8.6,13.27a20.69,20.69,0,0,0,1.44,11.62,16.83,16.83,0,0,0,20.29,9.5,13.56,13.56,0,0,0,6.45-4.18l1.35-1.53c1.59,1.23,3.1,2.45,4.66,3.6.69.51.46.88,0,1.41a19.27,19.27,0,0,1-5.78,4.55,18.77,18.77,0,0,1-6.72,2.44,4.49,4.49,0,0,0-2.28.36h-4.68A5,5,0,0,0,757.48,343Z"/><path class="cls-10" d="M1305.87,343a22.39,22.39,0,0,1-15.41-10.59c-5.49-8.93-5.6-18.24-.45-27.16,4.91-8.51,13-11.71,22.65-11.17a19.94,19.94,0,0,1,12.63,4.91c.53.48,1,1,1.49,1.54a1.32,1.32,0,0,1,.49,1c-1.47,1.09-3,2.22-4.57,3.4-.58.44-.88.18-1.29-.24a14,14,0,0,0-7.12-4.17c-6.88-1.48-12.56.63-17,6a18.43,18.43,0,0,0-4,11.55,19.84,19.84,0,0,0,1.62,9.11c3.81,8.11,11.9,11.81,20.33,9.52a13.3,13.3,0,0,0,6.67-4.51c1-1.23,1.06-1.22,2.37-.2,1.08.84,2.14,1.69,3.24,2.5.66.49.79.91.18,1.56a16.8,16.8,0,0,1-2.39,2.28c-3.24,2.32-6.65,4.3-10.73,4.71-.08,0-.13.19-.2.29h-6.24A4.57,4.57,0,0,0,1305.87,343Z"/><path class="cls-11" d="M698.17,343a.37.37,0,0,0,0,.37h-8.19a1.35,1.35,0,0,0,.14-.26S690,343,690,343Z"/><path class="cls-11" d="M1041.79,343a.37.37,0,0,0,0,.37h-8.19a1.35,1.35,0,0,0,.14-.26s-.05-.1-.08-.15Z"/><path class="cls-11" d="M449.2,343a.25.25,0,0,0,.09.42h-7.8a2.24,2.24,0,0,0,0-.31Z"/><path class="cls-11" d="M1356.5,343.37c.43-.56,1-.38,1.59-.39,1.91,0,3.83,0,5.74,0a.25.25,0,0,0,.07.41Z"/><path class="cls-12" d="M629.94,343a5,5,0,0,1,2.28.36h-2.73A.49.49,0,0,0,629.94,343Z"/><path class="cls-12" d="M757.48,343a5,5,0,0,1,2.28.36H757A.49.49,0,0,0,757.48,343Z"/><path class="cls-12" d="M764.43,343.37a4.49,4.49,0,0,1,2.28-.36.47.47,0,0,0,.45.36Z"/><path class="cls-12" d="M1156.09,343a5,5,0,0,1,2.28.36h-2.73A.49.49,0,0,0,1156.09,343Z"/><path class="cls-12" d="M1163,343.37a4.61,4.61,0,0,1,2.27-.37.48.48,0,0,0,.46.37Z"/><path class="cls-12" d="M1305.87,343a4.57,4.57,0,0,1,2.27.37h-2.73A.49.49,0,0,0,1305.87,343Z"/><path class="cls-12" d="M441.47,343.06a2.24,2.24,0,0,1,0,.31h-2c.28,0,.42-.09.42-.38Z"/><path class="cls-13" d="M710,56.62a95,95,0,1,0,94.75,95.72A95.07,95.07,0,0,0,710,56.62Zm-.21,158.75a63.65,63.65,0,1,1,.82-127.3c33.71.44,62.88,27.76,62.89,63.53A63.85,63.85,0,0,1,709.83,215.38Z"/><path class="cls-13" d="M353.85,56.62a95,95,0,1,0,94.83,95.07A95.1,95.1,0,0,0,353.85,56.62Zm63.48,96.45a63.63,63.63,0,1,1-62.78-65A64,64,0,0,1,417.33,153.07Z"/><path class="cls-14" d="M1099.53,126.07a4.11,4.11,0,0,0-.27,2.25q0,49.43,0,98.86c0,5.84-2.2,10.54-7.12,13.71a14.94,14.94,0,0,1-15.92.74,14.74,14.74,0,0,1-8.34-13.75q0-76.34,0-152.68a15.86,15.86,0,0,1,10.72-15,15.63,15.63,0,0,1,17.69,5.68c3.57,5,7,10,10.45,15.05l65.14,94.29c.36.52.74,1,1.18,1.67a2.86,2.86,0,0,0,.36-2.13q0-30.81,0-61.62,0-19,0-38A15.48,15.48,0,0,1,1184.71,60a15.65,15.65,0,0,1,20.06,15q0,76.44,0,152.88a15.68,15.68,0,0,1-28.51,9q-12.65-18.15-25.18-36.38l-50.22-72.62C1100.46,127.3,1100,126.75,1099.53,126.07Z"/><path class="cls-13" d="M596.83,178c-3-9.31-8.88-16.8-16-23.4-2.71-2.53-5.58-4.87-8.48-7.17-5.76-4.56-6.23-12.88-1.47-17.54.74-.73,1.38-1.56,2.12-2.29a44.07,44.07,0,0,0,10.13-15.09c2.1-5.28,3.66-10.7,3.45-16.45a36.43,36.43,0,0,0-7.29-20.81c-7.42-10-17.35-15.69-29.84-15.85-21.18-.27-42.37-.07-63.56-.07a13.54,13.54,0,0,0-8.65,3c-4.5,3.59-6.3,8.44-6.33,14-.06,9.29-.05,18.58-.11,27.87-.1,15.86,0,31.71,0,47.57q0,37.63,0,75.25a18,18,0,0,0,.55,4.62,15.65,15.65,0,0,0,15.39,11.7q31.1,0,62.19,0a54.33,54.33,0,0,0,26.68-6.8c8.89-4.93,15.8-11.81,19.94-21.18C601,203.2,600.95,190.64,596.83,178Zm-28.76,20.2a14.09,14.09,0,0,1-7.9,10.91A24.73,24.73,0,0,1,548.55,212c-11.83,0-23.66-.09-35.49,0a10.68,10.68,0,0,1-10.84-11c.14-16.64,0-33.28,0-49.92s0-33.15,0-49.72a10.22,10.22,0,0,1,3.88-8.53,9.93,9.93,0,0,1,6.33-2.17q17.65,0,35.29,0a6.94,6.94,0,0,1,6.9,4.48c1.24,3,.49,5.7-1.77,8-2.86,2.93-5.8,5.79-8.52,8.84-7.86,8.84-11.59,19.1-10.16,31,1.33,11.06,6.84,19.71,15.45,26.54a126.61,126.61,0,0,1,11.76,9.93,21.85,21.85,0,0,1,6.19,10.41A22.37,22.37,0,0,1,568.07,198.24Z"/><path class="cls-15" d="M1377.14,133.81c-5-26.67-19.72-47-42.8-61.18-14.46-8.88-30.36-13-47.27-13.12-8.45-.08-16.9,0-25.35,0a30.81,30.81,0,0,0-4.08.26,15.56,15.56,0,0,0-13.4,15.12q0,9.07-.06,18.13,0,29.15,0,58.31,0,37.44,0,74.88c0,.91,0,1.82.07,2.73a15.64,15.64,0,0,0,13,14.3,30.87,30.87,0,0,0,5,.29c5.91.05,11.83,0,17.74.13a112,112,0,0,0,21-1c21.18-3.54,39.27-13,53.63-29C1375.18,190.79,1382.79,164,1377.14,133.81Zm-48.1,61.1a58.67,58.67,0,0,1-33.62,16.7,50.22,50.22,0,0,1-9.9.65A10.08,10.08,0,0,1,1275.7,202q0-25.06,0-50.11,0-18.52,0-37c0-4.55,0-9.1.13-13.64.11-5.44,3.68-9.81,8.67-10.44a37.26,37.26,0,0,1,8.75,0,59.12,59.12,0,0,1,31,12.59c12.59,10,20.27,23.07,22.52,39C1349.63,162.74,1343.61,180.38,1329,194.91Z"/><path class="cls-15" d="M1275.7,151.87q0-18.52,0-37,0,18.52,0,37,0,25.06,0,50.11Q1275.69,176.92,1275.7,151.87Z"/><path class="cls-13" d="M120.88,151.93c0-25.48.06-51,0-76.43a15.9,15.9,0,0,1,16-16.09c19.89,0,39.78,0,59.66,0a36.86,36.86,0,0,1,35.94,30.34c2.2,12.79-1.33,23.89-10.45,33.16-4.79,4.86-9.64,9.66-14.47,14.48a19.35,19.35,0,0,0-6,12.93,18.54,18.54,0,0,0,5.32,14.74c10.6,10.72,21.33,21.31,32,32,6.76,6.75,13.56,13.46,20.25,20.28a15.61,15.61,0,0,1,2.73,17.88,15.78,15.78,0,0,1-16.09,8.66,16.44,16.44,0,0,1-9.63-5.08q-15.62-15.67-31.29-31.3c-6.53-6.52-13.09-13-19.62-19.54a49.44,49.44,0,0,1-14.66-29c-2.18-16.52,2.47-31,14.13-43,5-5.18,10.06-10.34,15.21-15.38a5.6,5.6,0,0,0-2-9.35,10.43,10.43,0,0,0-3.47-.37c-3.44,0-6.89,0-10.33,0-7.15,0-14.29-.11-21.44-.12a10.16,10.16,0,0,0-9.8,6.69,11.47,11.47,0,0,0-.68,4q0,4.19,0,8.38,0,59.18,0,118.35a15.7,15.7,0,1,1-31.41.22c.12-25.48,0-51,0-76.43Z"/><path class="cls-16" d="M958,74.77A15.81,15.81,0,0,1,953,86.67l-15.72,15.71c-10.84,10.84-21.59,21.79-32.56,32.5a20.32,20.32,0,0,0,0,28.52c17.42,17.22,34.67,34.62,52,51.93a16.25,16.25,0,0,1,4.77,8.32,15.52,15.52,0,0,1-12.83,18.78,15.81,15.81,0,0,1-14-4.69q-26.11-26.13-52.23-52.25a49.45,49.45,0,0,1-14.54-28.89c-2.22-16.58,2.22-31.24,14-43.23,16.21-16.5,32.67-32.76,49-49.1a15.68,15.68,0,0,1,25.09,3.27A13.76,13.76,0,0,1,958,74.77Z"/><path class="cls-12" d="M994.22,151.17q0-38.21,0-76.41a15.73,15.73,0,0,1,31.46-.46c0,.32,0,.65,0,1q0,75.93,0,151.85c0,5.25-1.79,9.7-6,12.94-5.15,4-10.87,4.61-16.67,1.79a14.8,14.8,0,0,1-8.78-14.08Q994.17,189.47,994.22,151.17Z"/><path class="cls-15" d="M829,151q0-37.43,0-74.86a19.07,19.07,0,0,1,.88-6.33,15.71,15.71,0,0,1,30.54,4.42c0,.52,0,1,0,1.56q0,75.15,0,150.3c0,4.81-1.4,9-5,12.24-4.87,4.42-10.57,5.52-16.65,3.08-5.85-2.35-9.11-6.89-9.72-13.22-.09-1-.11-1.94-.11-2.92Q829,188.19,829,151Z"/><path class="cls-17" d="M364.26,304.2v14.14q0,11.21,0,22.42c0,1.66-.06,1.51-1.47,1.51s-2.6,0-3.9,0c-.87,0-1.16-.33-1.09-1.14,0-.39,0-.78,0-1.17q0-21.25,0-42.49c0-.19,0-.39,0-.58,0-1.68,0-1.68,1.71-1.69s3.51.07,5.26,0a2.54,2.54,0,0,1,2.5,1.36q11.57,17.44,23.22,34.84c.39.59.79,1.17,1.28,1.88a2.8,2.8,0,0,0,.34-2.05q0-16.67,0-33.33c0-.32,0-.65,0-1,0-1.68,0-1.69,1.7-1.7,1.3,0,2.6,0,3.9,0,.67,0,.95.26.91.92,0,.39,0,.78,0,1.17q0,21.54,0,43.08c0,2.15.26,1.89-1.82,1.9-1.62,0-3.25-.07-4.87,0a2.37,2.37,0,0,1-2.35-1.27c-5.17-7.71-10.4-15.38-15.6-23.07q-4.37-6.45-8.74-12.9C365.06,304.76,365,304.33,364.26,304.2Z"/><path class="cls-10" d="M698.17,343,690,343a21.74,21.74,0,0,1-12.18-5.57c-6-5.52-8.32-12.49-7.87-20.53a23.86,23.86,0,0,1,6.46-15.47c5.35-5.69,12.11-7.75,19.76-7.32a23.15,23.15,0,0,1,14,5.28,23.53,23.53,0,0,1,8.6,16.66,25.93,25.93,0,0,1-3.88,16.76c-3.63,5.63-8.94,8.69-15.31,10.16A7.41,7.41,0,0,1,698.17,343Zm-21.51-24.4a19.13,19.13,0,0,0,.84,6c2.13,6.87,6.74,11.23,13.78,12.51,7.32,1.32,13.28-1.37,17.54-7.45,4.51-6.45,4.08-16.34-.57-22.7-6-8.18-17.23-8.52-23.66-4C679.2,306.71,676.85,312.13,676.67,318.6Z"/><path class="cls-18" d="M1108.11,317.37a11.43,11.43,0,0,1,5.88,3.39c4.4,4.66,4.48,13.36-1.18,17.67a16.89,16.89,0,0,1-9.84,3.72c-5.84.18-11.68.09-17.53.13-.8,0-1.23-.21-1.13-1.09a10.22,10.22,0,0,0,0-1.17q0-21.33,0-42.66c0-.45,0-.91,0-1.36s.3-.8.83-.81h16.17a17.12,17.12,0,0,1,8.75,2.22,9.9,9.9,0,0,1,5.08,8.45c.34,5-1.8,8.48-6.18,10.72-.29.15-.56.31-.84.48C1108.1,317.08,1108.12,317.16,1108.11,317.37Zm-17.22,11.19c0,2.27,0,4.54,0,6.81,0,.76.12,1.21,1,1.19,3.69-.09,7.4.24,11.07-.24,4.07-.52,7.48-3.56,7.4-7.85a7.48,7.48,0,0,0-6.2-7.62c-4.16-.87-8.4-.27-12.61-.4-.79,0-.69.61-.69,1.11C1090.89,323.89,1090.89,326.22,1090.89,328.56Zm6.12-27.69h0c-1.69,0-3.37,0-5.06,0-.7,0-1.07.15-1.07,1,0,4,0,7.91,0,11.87,0,.95.46,1,1.2,1,2.72,0,5.45,0,8.17,0a11.92,11.92,0,0,0,2.69-.37,6.59,6.59,0,0,0,4.32-2.74,7,7,0,0,0-5.58-10.69C1100.12,300.81,1098.56,300.87,1097,300.87Z"/><path class="cls-10" d="M1041.79,343l-8.18,0a21.94,21.94,0,0,1-13.79-7.28,24.91,24.91,0,0,1-6.27-18.08,23.83,23.83,0,0,1,5.82-15.32,23.09,23.09,0,0,1,17.22-8.24c6.45-.25,12.37,1.22,17.39,5.49a24.27,24.27,0,0,1,8.4,15.77,25.71,25.71,0,0,1-2.75,15.46c-3.47,6.81-9.22,10.51-16.48,12.17A7.47,7.47,0,0,1,1041.79,343Zm14-24.22a18.51,18.51,0,0,0-.4-3.69c-1.65-8.55-7.79-14.87-17-15.05a16,16,0,0,0-12.09,4.5,19.33,19.33,0,0,0-5.58,17.83c2.17,12.61,15.68,19,26.54,12.36C1053.15,331.11,1055.38,325.4,1055.8,318.78Z"/><path class="cls-10" d="M224.86,313.43a21.42,21.42,0,0,0-8-13.4A24.1,24.1,0,0,0,202,295.21c-5.32-.07-10.65,0-16,0h-1c-.58,0-.81.3-.79.85s0,.91,0,1.36q0,10.62,0,21.23,0,11.1,0,22.21c0,1.38,0,1.41,1.37,1.41q7.21,0,14.42,0a30.33,30.33,0,0,0,5-.46,23.9,23.9,0,0,0,13-6.16C224.43,329.51,226.53,322,224.86,313.43Zm-6.61,8.88c-1.24,6.33-5.23,10.26-11.12,12.41a23.1,23.1,0,0,1-8.41,1.31c-2.21,0-4.41,0-6.62,0-1.36,0-1.39,0-1.39-1.37q0-4,0-8.08t0-8.08q0-3.94,0-7.89t0-7.89c0-1.59,0-1.52,1.46-1.52,3,0,6,0,9,0a19,19,0,0,1,7.92,1.74c5.66,2.61,8.45,7.22,9.35,13.18A18.08,18.08,0,0,1,218.25,322.31Z"/><path class="cls-10" d="M190.7,310.59q0,3.94,0,7.89t0,8.08q0-4,0-8.08T190.7,310.59Z"/><path class="cls-10" d="M535.42,318.75q0-11,0-22c0-.74-.25-1.58,1.06-1.55,6.43.13,12.87-.31,19.28.22,10.77.9,18.75,8.14,20.36,19.17,1.2,8.23-1,15.3-7,21.06a24.42,24.42,0,0,1-13.18,6.21,40,40,0,0,1-6.79.44H536.86c-1.52,0-1.45.09-1.45-1.51Q535.42,329.76,535.42,318.75Zm6.31-.17q0,8,0,16c0,1.44,0,1.46,1.49,1.47,2.14,0,4.29,0,6.43,0a25.75,25.75,0,0,0,8-1.17c7-2.16,11.3-7.3,11.82-14.57.74-10.33-5.52-18.47-16.5-19-3.3-.17-6.62-.07-9.93-.06-1.33,0-1.35,0-1.36,1.41Q541.72,310.59,541.73,318.58Z"/><path class="cls-10" d="M996.57,342.27c-2.67,0-5,0-7.42,0-.77,0-.93-.6-1.21-1.08q-4.21-7.24-8.41-14.49c-.85-1.46-1.72-2.91-2.54-4.38a1.37,1.37,0,0,0-1.38-.81c-1.62,0-3.25.07-4.87,0-1,0-1.17.41-1.16,1.27,0,5.72,0,11.44,0,17.16,0,2.32,0,2.32-2.4,2.32-1,0-2.08,0-3.12,0-.66,0-1-.24-.93-.91,0-.39,0-.78,0-1.17q0-21.45,0-42.9c0-2.32-.22-2.1,2.08-2.1,5.2,0,10.4,0,15.6,0a14.24,14.24,0,0,1,9.89,3.41c4.46,4,5.8,12.06,1.41,17.3a13,13,0,0,1-8.9,4.86Zm-27-33.93c0,2.14,0,4.28,0,6.42,0,.65.06,1.14.91,1.12,3.5-.08,7,.22,10.49-.21a7.61,7.61,0,0,0,5-2.26c2.93-3.32,2.6-10.72-3.65-12.09a14,14,0,0,0-2.68-.42c-3-.06-6,0-8.95,0-1,0-1.18.41-1.16,1.27C969.62,304.19,969.59,306.26,969.59,308.34Z"/><path class="cls-11" d="M483,318.6q0-10.82,0-21.63c0-1.77,0-1.78,1.82-1.78h26.89c1.72,0,1.77,0,1.72,1.67,0,1.41.63,3.22-.34,4.11s-2.61.21-4,.21c-6,0-12.08,0-18.12,0-1.46,0-1.48,0-1.48,1.49q0,5.46,0,10.91c0,1.44,0,1.47,1.54,1.47h18.32c.45,0,.91,0,1.36,0,.76-.06,1,.26,1,1,0,1.36-.08,2.73,0,4.09.08,1.15-.63,1-1.35,1H495c-1.49,0-3,0-4.48,0-.74,0-1,.25-1,1q0,6.43,0,12.86c0,.65.2,1,.88.94.45,0,.91,0,1.36,0H513c1.34,0,1.64-.36,1.62,1.58,0,1.17-.06,2.34,0,3.51.06,1-.37,1.21-1.26,1.18-1.69-.05-3.38,0-5.07,0H485.13c-2.34,0-2.12.29-2.12-2Q483,329.42,483,318.6Z"/><path class="cls-18" d="M165.37,339.58q-8.65-20.32-17.32-40.63c-.53-1.24-.68-2.87-1.8-3.56s-2.55,0-3.83-.22c-1.47-.2-2.16.39-2.74,1.73q-8.78,20.26-17.69,40.46l-2.14,4.91c2.36,0,4.38-.06,6.38,0,1,0,1.35-.41,1.65-1.22,1.16-3,2.36-6,3.55-9.05.6-1.51.61-1.52,2.19-1.52h18.91c1.64,0,1.64,0,2.24,1.47,1.24,3.06,2.48,6.13,3.73,9.19.21.51.31,1.12,1.12,1.11,2.19,0,4.38,0,6.84,0C166,341.22,165.72,340.4,165.37,339.58Zm-31-14.85,8.75-21.36,8.72,21.36Z"/><path class="cls-18" d="M292.31,342.27c2-4.54,3.83-8.75,5.69-13q7.18-16.3,14.35-32.6c.48-1.09,1-1.69,2.26-1.55a16.25,16.25,0,0,0,2.92,0,1.66,1.66,0,0,1,1.91,1.18q9.56,22.58,19.19,45.13a6.3,6.3,0,0,1,.19.67c-2.3.24-4.55.06-6.79.11-.69,0-.8-.49-1-1-1.23-3.14-2.52-6.26-3.72-9.41a1.75,1.75,0,0,0-1.94-1.39q-9.75.1-19.5,0a1.77,1.77,0,0,0-1.94,1.42c-1.17,3.09-2.43,6.15-3.6,9.25a1.51,1.51,0,0,1-1.7,1.16C296.62,342.22,294.61,342.27,292.31,342.27Zm32-17.52-8.63-21.39-8.87,21.39Z"/><path class="cls-18" d="M872.28,342.27c-2.29,0-4.3-.06-6.3,0-1,0-1.36-.44-1.66-1.22-1.17-3-2.34-5.9-3.56-8.83-.76-1.83-.25-1.74-2.45-1.74q-9.35,0-18.7,0c-2.1,0-1.65-.26-2.46,1.71-1.22,2.93-2.44,5.86-3.55,8.83a1.61,1.61,0,0,1-1.85,1.24c-1.94-.07-3.89,0-5.79,0-.26-.59.09-1,.26-1.35q9.66-22,19.32-44c.57-1.29,1.2-2,2.69-1.79a8.42,8.42,0,0,0,2.33,0c1.26-.17,1.79.42,2.26,1.54q8,18.88,16.13,37.73ZM848.94,303.5l-8.8,21.25h17.59Z"/><path class="cls-10" d="M441.47,343.06,440,343c-8.31-1.65-13.92-6.67-17.34-14.22-4.14-9.13-2-21.56,5.46-28.43a23.57,23.57,0,0,1,16.3-6.32,23.06,23.06,0,0,1,12,2.72,18.12,18.12,0,0,1,4.51,3.69c.5.56.71,1-.08,1.55-1.54,1.06-3,2.2-4.58,3.34a14.6,14.6,0,0,0-7.73-4.82,16,16,0,0,0-15.85,4.71c-6.21,6.42-7,17.57-1.92,24.88a16.87,16.87,0,0,0,18.53,6.67,14.39,14.39,0,0,0,6.76-4.41l1.2-1.35,5.34,4.17a20.31,20.31,0,0,1-8,6.19A12.61,12.61,0,0,1,449.2,343Z"/><path class="cls-10" d="M241.15,295.2c2.15,0,4.34,0,6.52,0,.81,0,.92.59,1.11,1.12q1.77,4.84,3.52,9.68l9.36,25.78a1.39,1.39,0,0,0,.56.89,29.92,29.92,0,0,0,1.75-4.32c4-10.43,7.87-20.88,11.83-31.31.8-2.11.29-1.83,2.75-1.85,1.43,0,2.86,0,4.29,0a1.37,1.37,0,0,1,.39.14c.18.53-.16,1-.33,1.42q-8.61,21.91-17.24,43.82c-.75,1.91-.28,1.64-2.47,1.67-1,0-2-.06-2.92,0a1.47,1.47,0,0,1-1.71-1.15c-1-2.8-2.12-5.58-3.2-8.36q-6.92-17.87-13.83-35.75A2.46,2.46,0,0,1,241.15,295.2Z"/><path class="cls-11" d="M1216.93,321.74q0-9.45,0-18.9c0-1.84.16-1.64-1.69-1.64h-11.89c-1.47,0-1.49,0-1.51-1.49,0-1.17,0-2.34,0-3.51,0-.77.32-1.06,1-1,.39,0,.78,0,1.17,0h32.15c.39,0,.78,0,1.17,0,.74-.06,1.06.22,1,1,0,1.23-.06,2.47,0,3.7.05,1-.23,1.36-1.3,1.34-3.83-.07-7.66,0-11.5,0-2.3,0-2.3,0-2.3,2.22q0,18.22,0,36.44a13.25,13.25,0,0,0,0,1.36c.09.91-.36,1.1-1.16,1.07-1.3,0-2.6,0-3.9,0s-1.34,0-1.34-1.44Q1216.92,331.28,1216.93,321.74Z"/><path class="cls-18" d="M891.19,318.76q0-11,0-22c0-1.51,0-1.53,1.45-1.55s2.73,0,4.09,0c.71,0,1.11.22,1,1,0,.45,0,.91,0,1.36q0,18,0,36a8.14,8.14,0,0,1,0,1.17c-.15,1.05.31,1.29,1.3,1.28,6.17,0,12.34,0,18.51,0,1.77,0,1.73-.12,1.72,1.67,0,1,0,2.08,0,3.12,0,1.44,0,1.46-1.5,1.46h-22c-1.17,0-2.34,0-3.51,0-.87,0-1.1-.3-1.09-1.13,0-2.73,0-5.45,0-8.18Q891.19,325.87,891.19,318.76Z"/><path class="cls-18" d="M1264.46,318.91q0,10.92,0,21.84c0,1.54.08,1.54-1.45,1.53-1.36,0-2.73,0-4.09,0-.7,0-1.13-.17-1-1a10.42,10.42,0,0,0,0-1.17q0-21.35,0-42.7c0-.39,0-.78,0-1.17,0-.71.17-1.09,1-1.07,1.56,0,3.12,0,4.68,0,.64,0,1,.22.93.91,0,.45,0,.91,0,1.36Q1264.46,308.19,1264.46,318.91Z"/><path class="cls-11" d="M800.24,318.81q0-11,0-22c0-1.58,0-1.59,1.58-1.6,1.3,0,2.6,0,3.9,0,.73,0,1.1.24,1,1,0,.39,0,.78,0,1.17q0,21.43,0,42.86c0,.19,0,.39,0,.58,0,1.45,0,1.46-1.52,1.47-1.3,0-2.6,0-3.9,0-.82,0-1.15-.2-1.13-1.08.06-2,0-4,0-6Q800.24,327,800.24,318.81Z"/><path d="M1404.46,75.87a16.86,16.86,0,1,1-16.8-16.4A16.48,16.48,0,0,1,1404.46,75.87Zm-29.5,0c0,7.3,5.4,13.1,12.8,13.1,7.2,0,12.5-5.8,12.5-13s-5.3-13.2-12.6-13.2S1375,68.67,1375,75.87Zm10.1,8.6h-3.8V68.07a33.24,33.24,0,0,1,6.3-.5c3.1,0,4.5.5,5.7,1.2a4.55,4.55,0,0,1,1.6,3.6c0,1.8-1.4,3.2-3.4,3.8v.2c1.6.6,2.5,1.8,3,4,.5,2.5.8,3.5,1.2,4.1h-4.1c-.5-.6-.8-2.1-1.3-4-.3-1.8-1.3-2.6-3.4-2.6h-1.8Zm.1-9.3h1.8c2.1,0,3.8-.7,3.8-2.4,0-1.5-1.1-2.5-3.5-2.5a9.1,9.1,0,0,0-2.1.2Z"/></g></svg>